<?xml version="1.0"?>
<svg xmlns="http://www.w3.org/2000/svg" xmlns:xlink="http://www.w3.org/1999/xlink" version="1.1" id="Layer_1" x="0px" y="0px" viewBox="0 0 474.294 474.294" style="enable-background:new 0 0 474.294 474.294;" xml:space="preserve" width="512px" height="512px" class=""><g><circle style="fill:#186BD9" cx="237.111" cy="236.966" r="236.966" data-original="#3A5A98" class="" data-old_color="#3A5A98"/><path style="fill:#186BD9" d="M404.742,69.754c92.541,92.541,92.545,242.586-0.004,335.134  c-92.545,92.541-242.593,92.541-335.134,0L404.742,69.754z" data-original="#345387" class="" data-old_color="#345387"/><path style="fill:#186BD9" d="M472.543,263.656L301.129,92.238l-88.998,88.998l5.302,5.302l-50.671,50.667l41.474,41.474  l-5.455,5.452l44.901,44.901l-51.764,51.764l88.429,88.429C384.065,449.045,461.037,366.255,472.543,263.656z" data-original="#2E4D72" class="active-path" data-old_color="#2E4D72"/><path style="fill:#FFFFFF;" d="M195.682,148.937c0,7.27,0,39.741,0,39.741h-29.115v48.598h29.115v144.402h59.808V237.276h40.134  c0,0,3.76-23.307,5.579-48.781c-5.224,0-45.485,0-45.485,0s0-28.276,0-33.231c0-4.962,6.518-11.641,12.965-11.641  c6.436,0,20.015,0,32.587,0c0-6.623,0-29.481,0-50.592c-16.786,0-35.883,0-44.306,0C194.201,93.028,195.682,141.671,195.682,148.937  z" data-original="#FFFFFF" class=""/></g> </svg>
