<svg xmlns="http://www.w3.org/2000/svg" width="36" height="31.5" viewBox="0 0 36 31.5">
  <path id="Icon_awesome-gift" data-name="Icon awesome-gift" d="M2.25,31.5A2.248,2.248,0,0,0,4.5,33.75H15.75V22.5H2.25Zm18,2.25H31.5a2.248,2.248,0,0,0,2.25-2.25v-9H20.25Zm13.5-22.5H30.79a6.131,6.131,0,0,0,.71-2.812A6.2,6.2,0,0,0,25.313,2.25c-2.925,0-4.816,1.5-7.242,4.8-2.426-3.3-4.317-4.8-7.242-4.8A6.2,6.2,0,0,0,4.641,8.438a6.045,6.045,0,0,0,.71,2.813H2.25A2.248,2.248,0,0,0,0,13.5v5.625A1.128,1.128,0,0,0,1.125,20.25h33.75A1.128,1.128,0,0,0,36,19.125V13.5A2.248,2.248,0,0,0,33.75,11.25Zm-22.929,0a2.813,2.813,0,1,1,0-5.625c1.4,0,2.433.232,6.054,5.625H10.821Zm14.491,0H19.259c3.614-5.379,4.62-5.625,6.054-5.625a2.813,2.813,0,0,1,0,5.625Z" transform="translate(0 -2.25)" fill="#4ea2f6"/>
</svg>
