<svg xmlns="http://www.w3.org/2000/svg" width="34.875" height="34.873" viewBox="0 0 34.875 34.873">
  <path id="Icon_awesome-facebook-messenger" data-name="Icon awesome-facebook-messenger" d="M18.039.563C8.193.563.563,7.758.563,17.478A16.531,16.531,0,0,0,6.052,29.989c.587.528.466.834.566,4.094a1.4,1.4,0,0,0,1.96,1.235c3.72-1.638,3.768-1.768,4.4-1.6,10.778,2.966,22.461-3.931,22.461-16.245C35.438,7.758,27.885.563,18.039.563ZM28.532,13.579,23.4,21.705a2.628,2.628,0,0,1-3.791.7l-4.084-3.056a1.055,1.055,0,0,0-1.266,0l-5.51,4.179a.829.829,0,0,1-1.2-1.1L12.679,14.3a2.627,2.627,0,0,1,3.791-.7l4.082,3.056a1.055,1.055,0,0,0,1.266,0l5.513-4.175a.827.827,0,0,1,1.2,1.1Z" transform="translate(-0.563 -0.563)" fill="#fff"/>
</svg>
