<svg xmlns="http://www.w3.org/2000/svg" width="47.052" height="32.942" viewBox="0 0 47.052 32.942">
  <path id="users" d="M40,46.118a5.882,5.882,0,1,0-5.882-5.882A5.881,5.881,0,0,0,40,46.118Zm0-8.235a2.353,2.353,0,1,1-2.353,2.353A2.36,2.36,0,0,1,40,37.882ZM7.059,46.118a5.882,5.882,0,1,0-5.882-5.882A5.881,5.881,0,0,0,7.059,46.118Zm0-8.235a2.353,2.353,0,1,1-2.353,2.353A2.36,2.36,0,0,1,7.059,37.882ZM36.207,53.39a8.382,8.382,0,0,0-9.4-3.066,11.211,11.211,0,0,1-6.574,0,8.371,8.371,0,0,0-9.4,3.066A8.426,8.426,0,0,0,9.4,58.118v3.294a3.53,3.53,0,0,0,3.529,3.529H34.1a3.53,3.53,0,0,0,3.529-3.529V58.118a8.3,8.3,0,0,0-1.426-4.728Zm-2.088,8.022H12.941V58.118a4.955,4.955,0,0,1,4.809-4.941,14.784,14.784,0,0,0,11.559,0,4.95,4.95,0,0,1,4.809,4.941Zm6.765-12.941H39.118a6.155,6.155,0,0,0-3.441,1.051,10.744,10.744,0,0,1,2.529,2.662,2.68,2.68,0,0,1,.9-.184h1.765a2.655,2.655,0,0,1,2.647,2.647,1.765,1.765,0,0,0,3.529,0A6.174,6.174,0,0,0,40.883,48.471Zm-17.353,0a8.235,8.235,0,1,0-8.235-8.235A8.231,8.231,0,0,0,23.53,48.471Zm0-12.941a4.706,4.706,0,1,1-4.706,4.706A4.71,4.71,0,0,1,23.53,35.529ZM11.383,49.522a6.155,6.155,0,0,0-3.441-1.051H6.177A6.185,6.185,0,0,0,0,54.647a1.765,1.765,0,1,0,3.529,0A2.655,2.655,0,0,1,6.177,52H7.941a2.609,2.609,0,0,1,.9.184A10.91,10.91,0,0,1,11.383,49.522Z" transform="translate(0 -32)" fill="#ccc"/>
</svg>
